# xmcd
#
# Track frame offsets: 
#        150
#        15774
#        31908
#        46208
#        61994
#        78123
#        91889
#        108301
#        128325
#        147628
#        163854
#        178512
#
# Disc length: 2533 seconds
#
# Revision: 0
# Processed by: cddbd v1.5.2PL0 Copyright (c) Steve Scherf et al.
# Submitted via: ExactAudioCopy v1.3
#
DISCID=8809e30c
DTITLE=The Dramatics - Stax Classics
DYEAR=2017
DGENRE=R&B
TTITLE0=In The Rain
TTITLE1=Whatcha See Is Whatcha Get
TTITLE2=Get Up And Get Down
TTITLE3=Hey You! Get Off My Mountain
TTITLE4=And I Panicked
TTITLE5=Your Love Was Strange
TTITLE6=The Devil Is Dope
TTITLE7=Thank You For Your Love
TTITLE8=Toast To The Fool
TTITLE9=Fall In Love, Lady Love
TTITLE10=Fell For You
TTITLE11=Gimme Some (Good Soul Music)
EXTD=
EXTT0=
EXTT1=
EXTT2=
EXTT3=
EXTT4=
EXTT5=
EXTT6=
EXTT7=
EXTT8=
EXTT9=
EXTT10=
EXTT11=
PLAYORDER=
